<?xml version="1.0" encoding="UTF-8" standalone="no"?>
<svg
   xmlns:dc="http://purl.org/dc/elements/1.1/"
   xmlns:cc="http://creativecommons.org/ns#"
   xmlns:rdf="http://www.w3.org/1999/02/22-rdf-syntax-ns#"
   xmlns:svg="http://www.w3.org/2000/svg"
   xmlns="http://www.w3.org/2000/svg"
   xmlns:sodipodi="http://sodipodi.sourceforge.net/DTD/sodipodi-0.dtd"
   xmlns:inkscape="http://www.inkscape.org/namespaces/inkscape"
   id="svg8"
   version="1.1"
   viewBox="0 0 18 18"
   sodipodi:docname="breeze-radio-unchecked-symbolic.svg"
   inkscape:version="0.92.4 (5da689c313, 2019-01-14)">
  <metadata
     id="metadata9">
    <rdf:RDF>
      <cc:Work
         rdf:about="">
        <dc:format>image/svg+xml</dc:format>
        <dc:type
           rdf:resource="http://purl.org/dc/dcmitype/StillImage" />
      </cc:Work>
    </rdf:RDF>
  </metadata>
  <defs
     id="defs7" />
  <sodipodi:namedview
     pagecolor="#ffffff"
     bordercolor="#666666"
     borderopacity="1"
     objecttolerance="10"
     gridtolerance="10"
     guidetolerance="10"
     inkscape:pageopacity="0"
     inkscape:pageshadow="2"
     inkscape:window-width="1920"
     inkscape:window-height="1033"
     id="namedview5"
     showgrid="false"
     inkscape:zoom="13.111111"
     inkscape:cx="9"
     inkscape:cy="9"
     inkscape:window-x="0"
     inkscape:window-y="0"
     inkscape:window-maximized="1"
     inkscape:current-layer="svg8" />
  <path
     id="path2"
     class="warning"
     d="M 16.5,9 A 7.5,7.5 0 0 1 9,16.5 7.5,7.5 0 0 1 1.5,9 7.5,7.5 0 0 1 9,1.5 7.5,7.5 0 0 1 16.5,9 Z"
     fill="#f57900"
     style="fill:#d88d00;fill-opacity:1" />
  <path
     id="path4"
     class="success"
     d="m 9.0762714,1.2288136 a 8,8 0 0 0 -8,7.9999999 8,8 0 0 0 8,8.0000005 A 8,8 0 0 0 17.076271,9.2288135 8,8 0 0 0 9.0762714,1.2288136 Z m 0,0.9999999 a 7,7 0 0 1 6.9999996,7 7,7 0 0 1 -6.9999996,7.0000005 7,7 0 0 1 -7,-7.0000005 7,7 0 0 1 7,-7 z"
     inkscape:connector-curvature="0"
     style="fill:#8f267c;fill-opacity:1" />
</svg>
