<?xml version="1.0" encoding="UTF-8" standalone="no"?>
<svg
   xmlns:dc="http://purl.org/dc/elements/1.1/"
   xmlns:cc="http://creativecommons.org/ns#"
   xmlns:rdf="http://www.w3.org/1999/02/22-rdf-syntax-ns#"
   xmlns:svg="http://www.w3.org/2000/svg"
   xmlns="http://www.w3.org/2000/svg"
   xmlns:sodipodi="http://sodipodi.sourceforge.net/DTD/sodipodi-0.dtd"
   xmlns:inkscape="http://www.inkscape.org/namespaces/inkscape"
   version="1.1"
   viewBox="0 0 18 18"
   id="svg8"
   sodipodi:docname="breeze-radio-indeterminate-symbolic.svg"
   inkscape:version="0.92.4 (5da689c313, 2019-01-14)">
  <metadata
     id="metadata14">
    <rdf:RDF>
      <cc:Work
         rdf:about="">
        <dc:format>image/svg+xml</dc:format>
        <dc:type
           rdf:resource="http://purl.org/dc/dcmitype/StillImage" />
      </cc:Work>
    </rdf:RDF>
  </metadata>
  <defs
     id="defs12" />
  <sodipodi:namedview
     pagecolor="#ffffff"
     bordercolor="#666666"
     borderopacity="1"
     objecttolerance="10"
     gridtolerance="10"
     guidetolerance="10"
     inkscape:pageopacity="0"
     inkscape:pageshadow="2"
     inkscape:window-width="1920"
     inkscape:window-height="1033"
     id="namedview10"
     showgrid="false"
     inkscape:zoom="13.111111"
     inkscape:cx="9"
     inkscape:cy="9"
     inkscape:window-x="0"
     inkscape:window-y="0"
     inkscape:window-maximized="1"
     inkscape:current-layer="svg8" />
  <path
     class="warning"
     d="M 16.5,9 A 7.5,7.5 0 0 1 9,16.5 7.5,7.5 0 0 1 1.5,9 7.5,7.5 0 0 1 9,1.5 7.5,7.5 0 0 1 16.5,9 Z"
     fill="#f57900"
     id="path2"
     style="fill:#d88d00;fill-opacity:1" />
  <path
     class="error"
     d="M 9,0.92372881 A 8,8 0 0 0 1,8.9237289 8,8 0 0 0 9,16.923729 8,8 0 0 0 17,8.9237289 8,8 0 0 0 9,0.92372881 Z M 9,1.9237289 a 7,7 0 0 1 7,7 7,7 0 0 1 -7,7.0000001 7,7 0 0 1 -7,-7.0000001 7,7 0 0 1 7,-7 z"
     id="path4"
     inkscape:connector-curvature="0"
     style="fill:#8f267c;fill-opacity:1" />
  <path
     class="error"
     d="m 8.9237288,4.0762712 a 5,5 0 0 0 -5,5 5,5 0 0 0 5,4.9999998 5,5 0 0 0 5.0000002,-4.9999998 5,5 0 0 0 -5.0000002,-5 z m 1.7500002,2.8066 a 0.66,0.66 0 0 1 0.47656,0.19336 0.66,0.66 0 0 1 0.08008,0.097656 3,3 0 0 1 0.69336,1.9023 3,3 0 0 1 -3.0000002,2.9999998 3,3 0 0 1 -1.9512,-0.72852 3,3 0 0 1 -0.04883,-0.04297 v -0.002 a 0.66,0.66 0 0 1 0,-0.93359 L 10.216699,7.0762072 a 0.66,0.66 0 0 1 0.45703,-0.19336 z"
     dominant-baseline="auto"
     style="color:#000000;font-variant-ligatures:normal;font-variant-position:normal;font-variant-caps:normal;font-variant-numeric:normal;font-variant-alternates:normal;font-feature-settings:normal;text-indent:0;text-decoration:none;text-decoration-line:none;text-decoration-style:solid;text-decoration-color:#000000;text-transform:none;text-orientation:mixed;dominant-baseline:auto;white-space:normal;shape-padding:0;isolation:auto;mix-blend-mode:normal;solid-color:#000000;fill:#8f267c;fill-opacity:1;stroke-width:3.99029994;color-rendering:auto;image-rendering:auto;shape-rendering:auto"
     id="path6"
     inkscape:connector-curvature="0" />
</svg>
