<?xml version="1.0" encoding="UTF-8" standalone="no"?>
<svg
   xmlns:dc="http://purl.org/dc/elements/1.1/"
   xmlns:cc="http://creativecommons.org/ns#"
   xmlns:rdf="http://www.w3.org/1999/02/22-rdf-syntax-ns#"
   xmlns:svg="http://www.w3.org/2000/svg"
   xmlns="http://www.w3.org/2000/svg"
   xmlns:sodipodi="http://sodipodi.sourceforge.net/DTD/sodipodi-0.dtd"
   xmlns:inkscape="http://www.inkscape.org/namespaces/inkscape"
   id="svg4"
   version="1.1"
   viewBox="0 0 18 18"
   sodipodi:docname="breeze-close-hover-symbolic.svg"
   inkscape:version="0.92.4 (5da689c313, 2019-01-14)">
  <metadata
     id="metadata9">
    <rdf:RDF>
      <cc:Work
         rdf:about="">
        <dc:format>image/svg+xml</dc:format>
        <dc:type
           rdf:resource="http://purl.org/dc/dcmitype/StillImage" />
      </cc:Work>
    </rdf:RDF>
  </metadata>
  <defs
     id="defs7" />
  <sodipodi:namedview
     pagecolor="#ffffff"
     bordercolor="#666666"
     borderopacity="1"
     objecttolerance="10"
     gridtolerance="10"
     guidetolerance="10"
     inkscape:pageopacity="0"
     inkscape:pageshadow="2"
     inkscape:window-width="1920"
     inkscape:window-height="1033"
     id="namedview5"
     showgrid="false"
     inkscape:zoom="13.111111"
     inkscape:cx="9"
     inkscape:cy="9"
     inkscape:window-x="0"
     inkscape:window-y="0"
     inkscape:window-maximized="1"
     inkscape:current-layer="svg4" />
  <path
     id="path905"
     class="color"
     d="m9 0a9 9 0 0 0-9 9 9 9 0 0 0 9 9 9 9 0 0 0 9-9 9 9 0 0 0-9-9zm-3.6465 4.6465 3.6465 3.6465 3.6465-3.6465 0.70705 0.70705-3.6465 3.6465 3.6465 3.6465-0.70705 0.70705-3.6465-3.6465-3.6465 3.6465-0.70705-0.70705 3.6465-3.6465-3.6465-3.6465z"
     fill="#fff"
     stroke-width="1.125" />
  <path
     id="path905-3"
     class="error"
     d="M 9,0 A 9,9 0 0 0 0,9 9,9 0 0 0 9,18 9,9 0 0 0 18,9 9,9 0 0 0 9,0 Z M 5.3535,4.6465 9,8.293 l 3.6465,-3.6465 0.70705,0.70705 -3.6465,3.6465 3.6465,3.6465 L 12.6465,13.3536 9,9.7071 5.3535,13.3536 4.64645,12.64655 8.29295,9.00005 4.64645,5.35355 Z"
     inkscape:connector-curvature="0"
     style="opacity:0.5;fill:#8f267c;fill-opacity:1;stroke-width:1.125" />
</svg>
